<svg width="57" height="56" viewBox="0 0 57 56" fill="none" xmlns="http://www.w3.org/2000/svg">
<path d="M28.2085 0C12.6314 0 0 12.6291 0 28.2085C0 40.6718 8.08261 51.2456 19.2907 54.9756C20.7005 55.2367 21.2181 54.3636 21.2181 53.6186C21.2181 52.9459 21.1919 50.7238 21.1798 48.3667C13.3321 50.0731 11.6762 45.0385 11.6762 45.0385C10.393 41.778 8.54412 40.911 8.54412 40.911C5.98476 39.1602 8.73705 39.1962 8.73705 39.1962C11.5697 39.3952 13.0612 42.1031 13.0612 42.1031C15.5771 46.4156 19.6602 45.1688 21.2699 44.448C21.5231 42.6249 22.2542 41.3804 23.0609 40.676C16.7954 39.9627 10.2089 37.544 10.2089 26.7352C10.2089 23.6555 11.3109 21.1391 13.1154 19.1637C12.8225 18.4532 11.857 15.5841 13.3886 11.6986C13.3886 11.6986 15.7574 10.9405 21.148 14.5901C23.3981 13.9651 25.8113 13.6516 28.2085 13.6409C30.6058 13.6516 33.0208 13.9651 35.2752 14.5901C40.6592 10.9405 43.0247 11.6986 43.0247 11.6986C44.5602 15.5841 43.5941 18.4532 43.3013 19.1637C45.11 21.1391 46.2044 23.6555 46.2044 26.7352C46.2044 37.5697 39.6054 39.9553 33.324 40.6536C34.3358 41.529 35.2373 43.2457 35.2373 45.8774C35.2373 49.6518 35.2046 52.6895 35.2046 53.6186C35.2046 54.3692 35.7124 55.2488 37.1423 54.9718C48.3443 51.2377 56.4166 40.6676 56.4166 28.2085C56.4166 12.6291 43.7871 0 28.2085 0ZM10.565 40.1837C10.5029 40.3238 10.2824 40.3659 10.0815 40.2696C9.87695 40.1776 9.76204 39.9865 9.82837 39.8459C9.88909 39.7016 10.11 39.6614 10.3142 39.7581C10.5192 39.8501 10.636 40.0431 10.565 40.1837ZM11.9526 41.4218C11.818 41.5465 11.555 41.4886 11.3766 41.2914C11.1921 41.0948 11.1575 40.8318 11.2939 40.7052C11.4327 40.5805 11.6877 40.6389 11.8727 40.8355C12.0572 41.0345 12.0932 41.2956 11.9526 41.4218ZM12.9045 43.0059C12.7316 43.1259 12.449 43.0133 12.2743 42.7625C12.1015 42.5116 12.1015 42.2108 12.2781 42.0903C12.4532 41.9698 12.7316 42.0782 12.9087 42.3271C13.081 42.5822 13.081 42.883 12.9045 43.0059ZM14.5144 44.8405C14.3597 45.011 14.0304 44.9652 13.7894 44.7326C13.5427 44.5051 13.4741 44.1823 13.6292 44.0118C13.7857 43.8408 14.1168 43.8889 14.3597 44.1197C14.6045 44.3467 14.6793 44.6718 14.5144 44.8405ZM16.595 45.4598C16.5268 45.6808 16.2096 45.7812 15.8901 45.6873C15.571 45.5906 15.3622 45.3318 15.4267 45.1085C15.493 44.8862 15.8116 44.7815 16.1335 44.882C16.452 44.9782 16.6613 45.2351 16.595 45.4598ZM18.9628 45.7225C18.9707 45.9551 18.6998 46.1481 18.3644 46.1523C18.0272 46.1597 17.7544 45.9715 17.7506 45.7426C17.7506 45.5076 18.0155 45.3166 18.3527 45.311C18.6881 45.3044 18.9628 45.4913 18.9628 45.7225ZM21.2889 45.6333C21.3291 45.8604 21.096 46.0935 20.763 46.1556C20.4355 46.2154 20.1323 46.0752 20.0908 45.8501C20.0501 45.6175 20.2874 45.3844 20.6144 45.3241C20.9479 45.2662 21.2464 45.4026 21.2889 45.6333Z" fill="#14B89F"/>
</svg>
