<svg width="46" height="45" viewBox="0 0 46 45" fill="none" xmlns="http://www.w3.org/2000/svg">
<g filter="url(#filter0_i_1_15)">
<path d="M38.5459 38.1659H31.8429V27.772C31.8429 25.2935 31.7982 22.1029 28.3566 22.1029C24.8654 22.1029 24.3313 24.8033 24.3313 27.5916V38.1652H17.6282V16.7912H24.0631V19.7122H24.1532C24.7972 18.622 25.7278 17.7251 26.8458 17.1171C27.9639 16.5091 29.2276 16.2127 30.5023 16.2596C37.2961 16.2596 38.5487 20.6842 38.5487 26.4405L38.5459 38.1659ZM10.065 13.8696C9.29566 13.8697 8.54354 13.6439 7.90378 13.2208C7.26402 12.7977 6.76538 12.1963 6.47083 11.4926C6.17629 10.7889 6.0991 10.0145 6.24906 9.2673C6.39901 8.52015 6.76937 7.83381 7.31328 7.29506C7.85719 6.75632 8.55023 6.38937 9.30476 6.24062C10.0593 6.09188 10.8414 6.16801 11.5522 6.4594C12.2631 6.75079 12.8707 7.24434 13.2982 7.87764C13.7257 8.51095 13.954 9.25557 13.9542 10.0173C13.9542 10.5231 13.8537 11.024 13.6583 11.4913C13.4629 11.9586 13.1765 12.3833 12.8154 12.741C12.4542 13.0987 12.0254 13.3825 11.5535 13.5761C11.0816 13.7698 10.5758 13.8695 10.065 13.8696ZM13.4165 38.1659H6.70651V16.7912H13.4165V38.1659ZM41.8876 0.00305176H3.33825C2.46329 -0.00672494 1.62016 0.327847 0.994205 0.933247C0.36825 1.53865 0.0106784 2.36534 0 3.23168V41.5597C0.010313 42.4265 0.367675 43.2537 0.993608 43.8598C1.61954 44.4658 2.46286 44.801 3.33825 44.7918H41.8876C42.7648 44.8027 43.6104 44.4684 44.2388 43.8624C44.8672 43.2564 45.227 42.4282 45.2391 41.5597V3.22891C45.2266 2.36086 44.8666 1.53322 44.2382 0.927838C43.6098 0.322453 42.7643 -0.0111634 41.8876 0.000285217" fill="#14B89F"/>
</g>
<defs>
<filter id="filter0_i_1_15" x="0" y="0" width="45.2391" height="48.7921" filterUnits="userSpaceOnUse" color-interpolation-filters="sRGB">
<feFlood flood-opacity="0" result="BackgroundImageFix"/>
<feBlend mode="normal" in="SourceGraphic" in2="BackgroundImageFix" result="shape"/>
<feColorMatrix in="SourceAlpha" type="matrix" values="0 0 0 0 0 0 0 0 0 0 0 0 0 0 0 0 0 0 127 0" result="hardAlpha"/>
<feOffset dy="4"/>
<feGaussianBlur stdDeviation="2"/>
<feComposite in2="hardAlpha" operator="arithmetic" k2="-1" k3="1"/>
<feColorMatrix type="matrix" values="0 0 0 0 0 0 0 0 0 0 0 0 0 0 0 0 0 0 0.25 0"/>
<feBlend mode="normal" in2="shape" result="effect1_innerShadow_1_15"/>
</filter>
</defs>
</svg>
