<svg width="50" height="60" viewBox="0 0 50 60" fill="none" xmlns="http://www.w3.org/2000/svg">
<path d="M39.3437 0H10.6541C5.10555 0 0.589844 4.51664 0.589844 10.0663V49.9358C0.589844 55.4855 5.10555 60 10.6541 60H34.759H36.303L37.3949 58.91L48.3202 47.9848L49.4102 46.8937V45.3499V10.0663C49.4102 4.51664 44.8945 0 39.3437 0ZM45.6832 45.3498H40.041C37.1252 45.3498 34.7589 47.715 34.7589 50.6318V56.2731H10.6541C7.15422 56.2731 4.31687 53.4347 4.31687 49.9358V10.0663C4.31687 6.56543 7.15422 3.72691 10.6541 3.72691H39.3437C42.8448 3.72691 45.6831 6.56543 45.6831 10.0663V45.3498H45.6832Z" fill="#14B89F"/>
</svg>
