<svg width="39" height="39" viewBox="0 0 39 39" fill="none" xmlns="http://www.w3.org/2000/svg">
<path fill-rule="evenodd" clip-rule="evenodd" d="M4.875 34.125H34.125C35.4705 34.125 36.5625 33.0281 36.5625 31.6875C36.5625 30.3469 35.4705 29.25 34.125 29.25H4.875C3.5295 29.25 2.4375 30.3469 2.4375 31.6875C2.4375 33.0281 3.5295 34.125 4.875 34.125ZM4.875 26.8125H34.125C36.8172 26.8125 39 28.9941 39 31.6875C39 34.3809 36.8172 36.5625 34.125 36.5625H4.875C2.18278 36.5625 0 34.3809 0 31.6875C0 28.9941 2.18278 26.8125 4.875 26.8125ZM4.875 21.9375H34.125C35.4705 21.9375 36.5625 20.8406 36.5625 19.5C36.5625 18.1594 35.4705 17.0625 34.125 17.0625H4.875C3.5295 17.0625 2.4375 18.1594 2.4375 19.5C2.4375 20.8406 3.5295 21.9375 4.875 21.9375ZM4.875 14.625H34.125C36.8172 14.625 39 16.8066 39 19.5C39 22.1934 36.8172 24.375 34.125 24.375H4.875C2.18278 24.375 0 22.1934 0 19.5C0 16.8066 2.18278 14.625 4.875 14.625ZM34.125 4.875H4.875C3.5295 4.875 2.4375 5.97187 2.4375 7.3125C2.4375 8.65312 3.5295 9.75 4.875 9.75H34.125C35.4705 9.75 36.5625 8.65312 36.5625 7.3125C36.5625 5.97187 35.4705 4.875 34.125 4.875ZM34.125 12.1875H4.875C2.18278 12.1875 0 10.0059 0 7.3125C0 4.61906 2.18278 2.4375 4.875 2.4375H34.125C36.8172 2.4375 39 4.61906 39 7.3125C39 10.0059 36.8172 12.1875 34.125 12.1875Z" fill="#14B89F"/>
</svg>
