<svg width="84" height="78" viewBox="0 0 84 78" fill="none" xmlns="http://www.w3.org/2000/svg">
<path d="M74.8125 14.625C74.8106 13.0094 74.1185 11.4605 72.8883 10.3181C71.658 9.17564 69.9899 8.53305 68.25 8.53125H15.75C14.1562 8.53159 12.6175 9.07335 11.4241 10.0544C11.3144 10.1364 11.2093 10.2237 11.1095 10.3159C11.01 10.4086 10.916 10.5061 10.8278 10.6081C9.7713 11.7163 9.18786 13.145 9.1875 14.625V63.375C9.18944 64.9906 9.88146 66.5395 11.1117 67.6819C12.342 68.8244 14.0101 69.467 15.75 69.4688H68.25C69.8438 69.4684 71.3825 68.9267 72.5759 67.9456C72.796 67.782 72.996 67.5963 73.1722 67.3919C74.2287 66.2837 74.8121 64.855 74.8125 63.375V14.625ZM66.9375 56.9855L22.631 15.8438H66.9375V56.9855ZM17.0625 21.0145L61.369 62.1562H17.0625V21.0145Z" fill="black"/>
</svg>
