<svg width="50" height="60" viewBox="0 0 50 60" fill="none" xmlns="http://www.w3.org/2000/svg">
<path d="M27.3718 29.5527C26.6253 29.802 25.829 29.9404 25 29.9404C24.171 29.9404 23.3746 29.802 22.6281 29.5527C17.2056 30.4432 14.3677 34.4286 14.3677 39.2649H25H35.6322C35.6322 34.4286 32.7947 30.4432 27.3718 29.5527Z" fill="#14B89F"/>
<path d="M25 28.2173C28.2144 28.2173 30.8193 25.6111 30.8193 22.3971V20.7463C30.8193 17.5323 28.2144 14.9269 25 14.9269C21.7855 14.9269 19.1807 17.5323 19.1807 20.7463V22.3971C19.1807 25.6111 21.7855 28.2173 25 28.2173Z" fill="#14B89F"/>
<g filter="url(#filter0_i_55_9)">
<path d="M39.3437 0H10.6541C5.10555 0 0.589844 4.51664 0.589844 10.0663V49.9358C0.589844 55.4855 5.10555 60 10.6541 60H34.759H36.303L37.3949 58.91L48.3202 47.9848L49.4102 46.8937V45.3499V10.0663C49.4102 4.51664 44.8945 0 39.3437 0ZM45.6832 45.3498H40.041C37.1252 45.3498 34.7589 47.715 34.7589 50.6318V56.2731H10.6541C7.15422 56.2731 4.31687 53.4347 4.31687 49.9358V10.0663C4.31687 6.56543 7.15422 3.72691 10.6541 3.72691H39.3437C42.8448 3.72691 45.6831 6.56543 45.6831 10.0663V45.3498H45.6832Z" fill="#14B89F"/>
</g>
<defs>
<filter id="filter0_i_55_9" x="0.589844" y="0" width="48.8203" height="64" filterUnits="userSpaceOnUse" color-interpolation-filters="sRGB">
<feFlood flood-opacity="0" result="BackgroundImageFix"/>
<feBlend mode="normal" in="SourceGraphic" in2="BackgroundImageFix" result="shape"/>
<feColorMatrix in="SourceAlpha" type="matrix" values="0 0 0 0 0 0 0 0 0 0 0 0 0 0 0 0 0 0 127 0" result="hardAlpha"/>
<feOffset dy="4"/>
<feGaussianBlur stdDeviation="2"/>
<feComposite in2="hardAlpha" operator="arithmetic" k2="-1" k3="1"/>
<feColorMatrix type="matrix" values="0 0 0 0 0 0 0 0 0 0 0 0 0 0 0 0 0 0 0.25 0"/>
<feBlend mode="normal" in2="shape" result="effect1_innerShadow_55_9"/>
</filter>
</defs>
</svg>
